# Blender v2.80 (sub 75) OBJ File: ''
# www.blender.org
mtllib Tree2.mtl
o Object.1
v 2.371502 -58.566521 168.645981
v 3.859501 -69.996521 139.383987
v 44.331501 -53.658524 155.299988
v -0.844498 -28.432531 226.741989
v 0.885502 -47.134525 197.907990
v 34.717503 -10.956534 232.194016
v 32.373501 -28.312527 191.196014
v -17.572498 -1.910536 267.782013
v 0.945503 -22.278540 265.146027
v 0.819500 3.445452 311.858002
v -18.690498 14.051461 268.606018
v -12.606498 -1.292539 263.830017
v -10.986500 3.617466 256.585999
v -8.516499 -0.762539 255.896011
v -27.604500 36.737492 120.110016
v -48.100498 13.363487 102.007996
v -51.970497 19.121489 105.778000
v -7.106499 60.109478 138.212021
v -6.172500 59.875488 130.860016
v 28.187504 51.933483 140.910019
v -0.552498 8.333481 139.690002
v -3.370499 10.395485 140.954010
v 34.235500 7.851488 129.538010
v 31.355501 33.367481 167.036011
v 35.113506 57.699486 145.840027
v 22.499500 51.491482 167.880005
v 27.597500 9.037476 188.233994
v 55.897499 7.573483 164.982010
v 24.589504 23.243475 199.930008
v 4.635502 44.863476 179.716003
v -55.900497 -33.550514 114.554001
v -48.532497 3.603482 158.048004
v -14.498500 -22.094534 228.179993
v -22.838499 -15.796531 210.992004
v -21.730497 -24.098528 208.334015
v 3.121502 -13.314536 253.972015
v 28.783504 -1.310537 272.192017
v 19.115505 -0.084543 287.010010
v -39.180500 19.373474 192.879990
v -11.250500 44.143482 162.887985
v -27.456499 44.559486 131.480011
v -2.942497 69.995483 157.180023
v 6.877502 28.653458 273.606018
v 20.767506 16.931458 285.158020
v 20.111500 19.917458 275.318024
v -22.564497 -15.720534 230.230011
v -3.782497 -8.452537 252.643997
v -26.020500 -51.774517 126.969994
v -27.508499 -40.342525 156.230011
v -25.956497 -48.992516 123.879990
v -24.402500 -47.444515 119.491997
v 3.989502 -64.434517 133.205994
v -52.794502 -30.456514 105.777992
v -30.380501 2.055469 217.519989
v -40.300499 20.145481 162.326004
v -41.418499 20.917482 131.770004
v 21.393505 -4.054538 254.508011
v 29.373501 22.377472 220.692017
v -0.686497 33.767475 222.264008
v -4.876499 43.327477 197.420013
v -32.236500 17.089472 220.894012
v 35.963505 -22.310526 171.766006
v 46.349506 -46.784523 155.300003
v 40.217503 -48.864513 147.835999
v -4.970497 11.567481 140.334000
v -31.610498 31.633486 134.334000
v -6.002498 12.323485 139.292007
v -8.600498 10.409486 137.336014
v -10.116500 8.995484 136.246002
v -27.136499 36.619488 116.434006
v -13.602500 5.739479 133.764008
v -13.372498 2.151483 134.614014
v -12.974499 1.837480 135.020004
v -10.898499 -0.018516 135.914001
v -7.552498 -4.912520 137.014008
v -6.680500 -4.166518 137.662003
v -3.404499 -3.796516 139.658005
v -28.098497 -17.126514 122.717995
v 1.525501 7.027481 139.536011
v -0.000500 7.929481 139.670013
v 2.767502 6.345481 139.408005
v 0.373501 1.711479 141.760010
v 20.295506 -23.576519 144.798004
v 1.663502 -32.444519 137.146011
v -0.662498 -0.456520 141.086014
v 2.181503 -31.360518 137.482010
v 0.739502 -34.074520 136.590012
v -2.510498 -3.714516 139.976013
v 0.291500 -34.114521 136.432007
v 36.973507 -18.874525 171.766006
v 40.293507 -19.466518 142.417999
v 17.953503 -7.538537 263.856018
v 3.797500 18.543459 264.750000
v -13.444500 10.533465 265.736023
v -10.714500 10.203465 256.496002
v -38.728500 6.677468 225.408005
v -35.646500 -0.712531 226.306015
v -13.800498 30.977476 200.306000
v -35.128502 17.409473 214.306000
v 26.921505 -19.482525 183.080002
v 22.607502 -50.396526 176.603989
v -29.282497 15.565485 128.678009
v -35.684502 -6.096527 184.520004
v -35.130501 -10.246524 183.189987
v -38.816498 -28.824524 161.444000
v 1.273502 -21.302534 259.672028
v -1.934498 18.691505 0.000002
v -18.814499 11.731506 0.000001
v -9.598499 13.235497 36.156006
v -15.426498 8.825501 40.118000
v -18.296501 -2.330498 -0.000001
v -3.370499 -7.082497 -0.000002
v -8.862499 -5.168502 44.522003
v -2.798500 -6.384502 45.703999
v 6.075500 -1.590492 -0.000001
v 8.269505 3.483501 24.510000
v 6.005501 11.349503 0.000001
v 4.689503 9.975499 19.364002
v -0.312500 13.317502 17.892002
v -5.114498 6.411507 0.000000
v -14.310501 12.537496 60.174007
v -18.932499 8.307490 78.426003
v -5.848499 12.209484 109.868004
v -13.802498 6.393491 109.500000
v -17.360500 3.793493 64.770004
v -13.260498 -1.780514 114.104004
v -11.466499 -2.708506 63.172001
v -7.206497 -7.644515 114.320000
v -6.602497 -2.820507 63.995998
v -3.264500 -7.078511 95.956001
v 1.029503 1.707491 81.372002
v 4.049503 6.415485 113.225998
v 3.689503 10.195494 58.115997
v -0.790497 9.461486 100.718002
v -18.614498 2.987497 39.212002
v -17.828499 0.731501 32.384003
v -29.538500 39.615490 121.996010
vt 0.378881 0.439437
vt 0.368639 0.362172
vt 0.450991 0.399865
vt 0.395607 0.633119
vt 0.389124 0.516703
vt 0.535801 0.650171
vt 0.499384 0.517750
vt 0.786370 0.892543
vt 0.830348 0.983110
vt 0.634753 0.974906
vt 0.748313 0.859114
vt 0.330242 0.858314
vt 0.313345 0.823225
vt 0.336181 0.814274
vt 0.148344 0.354448
vt 0.202074 0.361472
vt 0.195590 0.368468
vt 0.094614 0.347423
vt 0.103637 0.332667
vt 0.665098 0.320669
vt 0.547404 0.242805
vt 0.550624 0.236283
vt 0.565835 0.327718
vt 0.637345 0.418739
vt 0.673012 0.340478
vt 0.705224 0.390445
vt 0.601678 0.497001
vt 0.576460 0.411930
vt 0.654332 0.537985
vt 0.759534 0.448716
vt 0.245485 0.375108
vt 0.202348 0.454806
vt 0.341319 0.644978
vt 0.283130 0.584134
vt 0.307837 0.567637
vt 0.433311 0.786603
vt 0.454951 0.865333
vt 0.575070 0.826182
vt 0.587353 0.878337
vt 0.953452 0.554670
vt 0.839510 0.395841
vt 0.129473 0.369624
vt 0.063355 0.370781
vt 0.670949 0.836208
vt 0.628421 0.863585
vt 0.637363 0.840170
vt 0.301176 0.660974
vt 0.382522 0.788859
vt 0.307062 0.368640
vt 0.317304 0.445906
vt 0.304396 0.358968
vt 0.302653 0.355332
vt 0.363307 0.342829
vt 0.241999 0.367835
vt 0.213612 0.616588
vt 0.164320 0.470265
vt 0.170745 0.414424
vt 0.552213 0.762179
vt 0.643701 0.609331
vt 0.758715 0.628673
vt 0.781753 0.527837
vt 0.904371 0.664401
vt 0.526335 0.448433
vt 0.465770 0.399834
vt 0.453132 0.383440
vt 0.782220 0.313769
vt 0.733429 0.255746
vt 0.555374 0.232501
vt 0.711669 0.236851
vt 0.144422 0.394104
vt 0.093254 0.419741
vt 0.157895 0.526106
vt 0.203706 0.279839
vt 0.202189 0.282539
vt 0.206281 0.285339
vt 0.209288 0.286659
vt 0.152856 0.347070
vt 0.211991 0.293290
vt 0.215311 0.292604
vt 0.215632 0.291802
vt 0.221288 0.291529
vt 0.234178 0.293071
vt 0.233523 0.291363
vt 0.235896 0.287493
vt 0.238948 0.327664
vt 0.545894 0.248805
vt 0.546885 0.244441
vt 0.545191 0.252320
vt 0.534372 0.249864
vt 0.493752 0.316652
vt 0.445266 0.296897
vt 0.527226 0.250965
vt 0.448840 0.296346
vt 0.439699 0.297479
vt 0.516091 0.252128
vt 0.438990 0.296780
vt 0.514674 0.250731
vt 0.533724 0.448418
vt 0.515803 0.363776
vt 0.528122 0.812743
vt 0.686606 0.802110
vt 0.756611 0.842413
vt 0.773094 0.804288
vt 0.804293 0.863805
vt 0.799922 0.818977
vt 0.177719 0.667721
vt 0.939974 0.708245
vt 0.214207 0.661924
vt 0.831952 0.556558
vt 0.921630 0.638354
vt 0.132480 0.624758
vt 0.152807 0.598783
vt 0.516865 0.486382
vt 0.420058 0.458284
vt 0.168735 0.402742
vt 0.242739 0.519470
vt 0.255093 0.511222
vt 0.276661 0.471373
vt 0.447195 0.838951
vt 0.317660 0.888598
vt 0.064407 0.068477
vt 0.042982 0.037193
vt 0.150108 0.026432
vt 0.162400 0.239831
vt 0.041096 0.222921
vt 0.174753 0.214561
vt 0.042309 0.176378
vt 0.049771 0.124114
vt 0.187781 0.152026
vt 0.190864 0.134000
vt 0.061460 0.100599
vt 0.125607 0.092697
vt 0.068982 0.080775
vt 0.110859 0.075201
vt 0.105958 0.060319
vt 0.050662 0.079546
vt 0.004843 0.079332
vt 0.241362 0.229110
vt 0.302085 0.206786
vt 0.417511 0.240205
vt 0.412167 0.202918
vt 0.256217 0.190410
vt 0.427871 0.172637
vt 0.250621 0.158037
vt 0.428404 0.143119
vt 0.253183 0.138804
vt 0.363564 0.129273
vt 0.309024 0.099518
vt 0.424003 0.077144
vt 0.229340 0.069123
vt 0.380031 0.055727
vt 0.413066 0.035354
vt 0.235583 0.004504
vt 0.528805 0.224350
vt 0.520108 0.213118
vt 0.514803 0.205730
vt 0.502682 0.188719
vt 0.505202 0.176008
vt 0.506720 0.174118
vt 0.509989 0.164110
vt 0.510571 0.140688
vt 0.513315 0.136806
vt 0.520095 0.124259
vt 0.521127 0.120864
vt 0.524744 0.107924
vt 0.518992 0.078777
vt 0.527292 0.098699
vt 0.519773 0.074109
vt 0.520281 0.067407
vt 0.520472 0.039825
vt 0.525849 0.052186
vt 0.520501 0.064879
vt 0.524003 0.044741
vt 0.172197 0.191582
vt 0.149263 0.183394
vt 0.145102 0.357945
vt 0.299602 0.315161
vn 0.2217 -0.9044 0.3645
vn 0.3068 -0.7900 0.5308
vn 0.5357 -0.7882 0.3030
vn -0.6674 -0.6531 0.3579
vn -0.9159 -0.0844 0.3924
vn -0.8090 -0.3865 -0.4429
vn 0.0630 0.5760 -0.8150
vn -0.7027 0.7027 -0.1116
vn -0.2715 0.2053 -0.9403
vn -0.2716 0.2053 -0.9403
vn 0.7672 0.3498 0.5376
vn 0.5689 0.4886 0.6616
vn 0.8275 0.4508 -0.3347
vn -0.9918 0.0893 0.0917
vn -0.9056 -0.2341 0.3536
vn -0.3224 -0.8069 0.4949
vn 0.4911 -0.7814 0.3851
vn -0.3957 0.8543 0.3370
vn -0.5121 0.8026 -0.3059
vn 0.5182 0.8274 0.2165
vn -0.5110 0.7527 0.4151
vn -0.6181 -0.7860 0.0119
vn -0.5824 -0.8107 0.0595
vn -0.3201 -0.8035 0.5019
vn -0.5807 -0.7679 0.2705
vn -0.6109 -0.7340 0.2967
vn -0.3127 -0.8556 -0.4126
vn -0.1708 -0.7305 -0.6612
vn -0.7387 -0.0568 -0.6716
vn -0.9481 0.0750 -0.3091
vn 0.3491 -0.8399 0.4155
vn -0.9191 -0.3937 0.0146
vn -0.8326 -0.3219 -0.4507
vn -0.8989 0.4360 0.0439
vn -0.4325 -0.7213 0.5410
vn 0.3866 -0.7903 0.4753
vn 0.3521 0.9350 -0.0421
vn 0.5360 0.8143 0.2229
vn -0.4442 0.8085 0.3860
vn 0.9271 0.3713 0.0509
vn 0.8365 -0.0216 0.5476
vn 0.9721 0.0797 -0.2207
vn 0.8593 0.2844 0.4251
vn 0.9873 0.1178 -0.1063
vn 0.9689 0.2433 -0.0463
vn 0.6704 -0.1968 0.7154
vn 0.4905 -0.6527 -0.5773
vn 0.5064 -0.5712 -0.6460
vn -0.6860 0.3601 0.6322
vn 0.2067 0.6870 0.6966
vn 0.3786 0.4367 0.8160
vn 0.6406 0.6143 -0.4608
vn 0.0054 0.9617 0.2740
vn 0.2371 -0.1813 -0.9544
vn 0.2373 -0.1813 -0.9544
vn -0.8268 0.3610 0.4314
vn -0.6368 0.7698 0.0428
vn 0.6559 -0.1295 -0.7436
vn 0.6556 -0.1295 -0.7439
vn 0.6556 -0.1296 -0.7439
vn 0.6549 -0.1341 -0.7437
vn 0.6550 -0.1342 -0.7437
vn 0.6544 -0.1329 -0.7443
vn 0.6549 -0.1343 -0.7437
vn 0.5022 0.1517 -0.8514
vn 0.5021 0.1519 -0.8514
vn 0.5014 0.1535 -0.8515
vn 0.5013 0.1535 -0.8516
vn 0.5021 0.1518 -0.8514
vn -0.2749 -0.3308 -0.9028
vn -0.2739 -0.3296 -0.9035
vn -0.2694 -0.3211 -0.9079
vn -0.2693 -0.3216 -0.9078
vn -0.2694 -0.3213 -0.9078
vn 0.3182 0.1387 -0.9378
vn 0.3193 0.1387 -0.9374
vn 0.3183 0.1386 -0.9378
vn 0.3190 0.1387 -0.9375
vn 0.6085 -0.2415 0.7559
vn 0.2258 0.9742 -0.0023
vn 0.1813 0.5041 -0.8444
vn 0.8437 0.1534 -0.5144
vn 0.3911 0.2798 -0.8768
vn 0.7830 -0.1147 -0.6113
vn 0.8517 -0.0568 -0.5210
vn 0.7824 -0.2297 -0.5788
vn 0.4499 -0.8783 -0.1618
vn 0.7821 0.3879 0.4878
vn 0.3528 0.8921 0.2824
vn -0.4235 0.8922 -0.1570
vn -0.6033 0.7284 0.3247
vn -0.9708 -0.0305 -0.2378
vn -0.9581 0.0357 -0.2843
vn -0.9655 0.0364 -0.2578
vn -0.6810 -0.4722 0.5596
vn -0.4150 0.7417 0.5270
vn -0.5682 0.5989 0.5643
vn -0.7192 -0.2199 0.6591
vn -0.5931 -0.5947 0.5428
vn -0.6416 -0.3860 0.6628
vn -0.5256 -0.5751 0.6269
vn 0.5092 0.7898 0.3421
vn -0.4140 0.8822 0.2243
vn -0.7891 0.4809 -0.3822
vn -0.7215 0.5998 0.3459
vn -0.7167 -0.3707 -0.5907
vn -0.7510 -0.3495 -0.5602
vn -0.5623 -0.6301 -0.5355
vn 0.1912 -0.5976 -0.7786
vn 0.8618 0.0704 -0.5024
vn 0.6608 -0.2411 0.7108
vn 0.7577 -0.1334 0.6389
vn 0.1449 0.7204 -0.6782
vn -0.4485 -0.6858 -0.5732
vn -0.6964 -0.3260 0.6393
vn -0.1448 0.9459 0.2903
vn -0.4579 0.8732 0.1666
vn -0.9524 -0.2618 0.1561
vn -0.9144 -0.4023 0.0438
vn -0.9051 -0.2396 0.3514
vn -0.9056 -0.2341 0.3537
vn -0.9056 -0.2343 0.3537
vn -0.6109 -0.7340 0.2966
vn -0.6677 -0.3239 -0.6703
vn 0.6005 -0.5518 -0.5787
vn -0.8268 -0.5431 -0.1464
vn -0.5411 -0.3960 -0.7419
vn -0.6268 0.0805 -0.7750
vn -0.4736 0.0123 -0.8807
vn 0.6486 -0.6856 -0.3305
vn 0.6149 -0.7819 -0.1026
vn 0.2971 0.5764 -0.7613
vn 0.4747 0.5913 -0.6519
vn -0.2538 0.6799 -0.6880
vn -0.2302 0.3856 -0.8935
vn 0.9423 -0.1894 0.2762
vn 0.4611 0.3108 -0.8312
vn 0.2094 0.8009 0.5610
vn 0.8043 -0.0134 0.5941
vn 0.4383 -0.7868 0.4345
vn -0.3805 0.9229 0.0586
vn -0.5529 0.8264 0.1066
vn -0.9960 -0.0367 0.0815
vn -0.3034 -0.9529 0.0035
vn -0.1999 -0.9797 0.0175
vn 0.5026 -0.8645 0.0069
vn 0.7378 -0.6710 0.0729
vn 0.9977 0.0054 0.0682
vn 0.9125 0.3766 -0.1597
vn 0.6705 0.7251 0.1570
vn 0.5333 0.8405 0.0959
vn 0.4316 0.8740 0.2234
vn 0.0000 0.0000 -1.0000
vn -0.4677 0.8797 0.0854
vn -0.5883 0.7953 0.1461
vn -0.8097 -0.5786 0.0980
vn -0.9965 -0.0208 0.0805
vn -0.7413 -0.6712 -0.0030
vn -0.6951 -0.7185 -0.0234
vn -0.0005 -0.9912 -0.1320
vn -0.2147 -0.9737 -0.0761
vn 0.7516 -0.6390 -0.1636
vn 0.8875 -0.4605 -0.0161
vn 0.9254 -0.3775 -0.0319
vn 0.4170 0.9069 0.0595
vn 0.5770 0.8133 0.0747
vn 0.1273 0.9917 -0.0151
vn -0.5901 0.8073 -0.0062
vn -0.5900 0.8073 -0.0062
vn -0.6919 0.7216 0.0252
vn -0.6914 0.7220 0.0250
vn -0.9980 -0.0624 0.0065
vn -0.9980 -0.0625 0.0065
vn -0.6921 -0.7096 0.1323
vn -0.6932 -0.7087 0.1315
vn -0.6917 -0.7099 0.1324
vn -0.8299 -0.5552 0.0542
vn 0.6009 -0.7925 0.1046
vn 0.6005 -0.7927 0.1045
vn 0.0667 -0.9950 0.0749
vn 0.0646 -0.9951 0.0749
vn 0.8661 -0.4992 0.0233
vn 0.8661 -0.4993 0.0233
vn 0.8963 -0.4415 0.0424
vn 0.8963 -0.4414 0.0427
vn 0.4834 0.8750 0.0260
vn 0.4832 0.8751 0.0260
vn 0.5102 0.8597 0.0233
vn 0.5098 0.8600 0.0235
vn 0.5907 0.8069 -0.0000
vn 0.5907 0.8069 0.0007
vn 0.5904 0.8071 0.0016
vn 0.5907 0.8069 0.0004
vn -0.6443 0.7576 -0.1044
vn -0.8017 0.5941 -0.0653
vn -0.8705 0.4867 -0.0731
vn -0.8750 -0.4807 0.0581
vn -0.6234 -0.7775 0.0825
vn -0.7427 -0.6695 -0.0154
vn -0.2212 -0.9648 0.1420
vn -0.0439 -0.9912 0.1246
vn 0.0988 -0.9727 0.2101
vn 0.7380 -0.6709 0.0730
vn 0.8689 0.4947 0.0196
vn 0.9911 0.0384 0.1274
vn 0.5536 0.8327 0.0096
vn 0.1192 0.9907 0.0650
vn 0.1350 0.9893 0.0552
vn -0.9056 -0.2343 0.3536
vn -0.5120 0.8026 -0.3060
vn -0.8751 -0.4805 0.0581
vn -0.6964 -0.3260 0.6394
vn 0.6702 -0.1970 0.7155
vn 0.7577 -0.1333 0.6389
vn 0.0627 0.5762 -0.8149
vn -0.7025 0.7028 -0.1120
vn -0.3128 -0.8556 -0.4124
vn 0.0628 0.5762 -0.8149
vn -0.5121 0.8026 -0.3060
vn 0.6702 -0.1970 0.7156
vn 0.3195 0.1387 -0.9374
vn 0.5016 0.1528 -0.8515
vn -0.6234 -0.7776 0.0825
vn 0.7672 0.3499 0.5376
vn 0.5688 0.4885 0.6617
vn 0.3181 0.1386 -0.9379
vn 0.3187 0.1387 -0.9376
vn -0.9056 -0.2342 0.3537
vn -0.9056 -0.2342 0.3536
vn 0.2218 -0.9044 0.3646
vn -0.5807 -0.7679 0.2704
vn -0.9050 -0.2396 0.3515
vn -0.4139 0.8822 0.2245
vn 0.7828 -0.1147 -0.6115
vn 0.8517 -0.0568 -0.5209
vn 0.3194 0.1387 -0.9374
vn 0.3206 0.1388 -0.9370
vn 0.3184 0.1386 -0.9378
vn 0.2217 -0.9044 0.3646
vn 0.6609 -0.2411 0.7107
vn -0.8989 0.4360 0.0440
vn -0.6368 0.7698 0.0427
usemtl Mat_0
s off
f 1/1/1 2/2/1 3/3/1
f 4/4/2 5/5/2 6/6/2
f 6/6/3 5/5/3 7/7/3
f 8/8/4 9/9/4 10/10/4
f 8/8/5 10/10/5 11/11/5
f 12/12/6 13/13/6 14/14/6
f 15/15/7 16/16/7 17/17/7
f 15/15/8 18/18/8 19/19/8
f 20/20/9 21/21/9 22/22/9
f 21/21/10 20/20/10 23/23/10
f 24/24/11 25/25/11 26/26/11
f 24/24/12 27/27/12 28/28/12
f 29/29/13 27/27/13 30/30/13
f 17/17/14 31/31/14 32/32/14
f 33/33/15 34/34/15 35/35/15
f 33/33/16 4/4/16 36/36/16
f 9/37/17 37/38/17 38/39/17
f 39/40/18 30/30/18 40/41/18
f 41/42/19 42/43/19 18/18/19
f 43/44/20 44/45/20 45/46/20
f 10/10/21 43/44/21 11/11/21
f 46/47/22 34/34/22 33/33/22
f 12/12/23 47/48/23 36/36/23
f 33/33/24 5/5/24 4/4/24
f 48/49/25 2/2/25 49/50/25
f 35/35/26 5/5/26 33/33/26
f 50/51/27 31/31/27 51/52/27
f 50/51/28 52/53/28 48/49/28
f 17/17/29 16/16/29 31/31/29
f 31/31/30 16/16/30 53/54/30
f 36/36/31 4/4/31 6/6/31
f 34/34/32 46/47/32 54/55/32
f 14/14/33 47/48/33 12/12/33
f 55/56/34 56/57/34 32/32/34
f 36/36/35 46/47/35 33/33/35
f 36/36/36 6/6/36 57/58/36
f 58/59/37 29/29/37 59/60/37
f 59/60/38 29/29/38 60/61/38
f 60/61/39 61/62/39 59/60/39
f 37/38/40 45/46/40 44/45/40
f 44/45/41 38/39/41 37/38/41
f 29/29/42 58/59/42 6/6/42
f 6/6/43 58/59/43 57/58/43
f 7/7/44 27/27/44 6/6/44
f 6/6/45 27/27/45 29/29/45
f 62/63/46 3/3/46 63/64/46
f 2/2/47 52/53/47 3/3/47
f 3/3/48 52/53/48 64/65/48
f 40/41/49 30/30/49 42/66/49
f 42/66/50 30/30/50 26/26/50
f 27/27/51 26/26/51 30/30/51
f 42/66/52 26/26/52 18/67/52
f 18/67/53 26/26/53 25/25/53
f 22/22/54 65/68/54 19/69/54
f 20/20/55 22/22/55 19/69/55
f 66/70/56 40/71/56 41/42/56
f 55/56/57 39/72/57 40/71/57
f 65/73/58 67/74/58 19/19/58
f 68/75/59 69/76/59 16/16/59
f 70/77/60 19/19/60 68/75/60
f 68/75/60 19/19/60 67/74/60
f 53/54/61 16/16/61 71/78/61
f 53/54/62 71/78/62 72/79/62
f 53/54/63 72/79/63 73/80/63
f 69/76/64 71/78/64 16/16/64
f 53/54/65 73/80/65 74/81/65
f 53/54/66 74/81/66 75/82/66
f 75/82/67 76/83/67 77/84/67
f 78/85/68 53/54/68 75/82/68
f 78/85/69 77/84/69 51/52/69
f 79/86/70 80/87/70 21/21/70
f 81/88/71 79/86/71 21/21/71
f 23/23/72 81/88/72 21/21/72
f 82/89/73 81/88/73 23/23/73
f 83/90/74 82/89/74 23/23/74
f 84/91/75 85/92/75 86/93/75
f 87/94/76 88/95/76 84/91/76
f 89/96/77 77/97/77 87/94/77
f 83/90/78 64/65/78 86/93/78
f 90/98/79 63/64/79 28/28/79
f 19/69/80 18/67/80 20/20/80
f 20/20/81 18/67/81 25/25/81
f 28/28/82 23/23/82 25/25/82
f 25/25/83 23/23/83 20/20/83
f 91/99/84 63/64/84 64/65/84
f 91/99/85 23/23/85 28/28/85
f 3/3/86 64/65/86 63/64/86
f 36/36/87 57/58/87 92/100/87
f 93/101/88 57/58/88 58/59/88
f 59/60/89 93/101/89 58/59/89
f 94/102/90 93/101/90 95/103/90
f 95/103/91 93/101/91 59/60/91
f 12/104/92 94/102/92 13/105/92
f 13/105/93 94/102/93 95/103/93
f 13/105/94 95/103/94 59/60/94
f 14/14/95 13/13/95 96/106/95
f 13/105/96 59/60/96 61/62/96
f 61/62/97 96/107/97 13/105/97
f 14/14/98 96/106/98 97/108/98
f 97/108/99 47/48/99 14/14/99
f 97/108/100 46/47/100 47/48/100
f 36/36/101 47/48/101 46/47/101
f 60/61/102 29/29/102 30/30/102
f 98/109/103 30/30/103 99/110/103
f 98/109/104 61/62/104 60/61/104
f 96/106/105 61/111/105 99/112/105
f 97/108/106 96/106/106 99/112/106
f 99/112/107 54/55/107 97/108/107
f 54/55/108 46/47/108 97/108/108
f 7/7/109 5/5/109 100/113/109
f 100/113/110 27/27/110 7/7/110
f 101/114/111 3/3/111 100/113/111
f 62/63/112 27/27/112 100/113/112
f 56/57/113 40/71/113 102/115/113
f 102/115/114 32/32/114 56/57/114
f 66/70/115 17/17/115 102/115/115
f 17/17/116 32/32/116 102/115/116
f 39/40/117 99/110/117 30/30/117
f 54/55/118 99/112/118 39/72/118
f 34/34/119 54/55/119 39/72/119
f 103/116/120 34/34/120 39/72/120
f 104/117/121 35/35/121 34/34/121
f 104/117/122 32/32/122 105/118/122
f 49/50/123 5/5/123 35/35/123
f 36/36/124 106/119/124 12/12/124
f 36/36/125 92/100/125 106/119/125
f 12/12/126 106/119/126 9/37/126
f 9/37/127 8/120/127 12/12/127
f 94/102/128 12/104/128 8/8/128
f 8/8/129 11/11/129 94/102/129
f 106/119/130 92/100/130 37/38/130
f 37/38/131 9/37/131 106/119/131
f 57/58/132 93/101/132 43/44/132
f 43/44/133 45/46/133 57/58/133
f 93/101/134 11/11/134 43/44/134
f 93/101/135 94/102/135 11/11/135
f 92/100/136 57/58/136 45/46/136
f 45/46/137 37/38/137 92/100/137
f 10/10/138 44/45/138 43/44/138
f 38/39/139 44/45/139 10/10/139
f 9/37/140 38/39/140 10/10/140
f 107/121/141 108/122/141 109/123/141
f 109/124/142 108/125/142 110/126/142
f 108/125/143 111/127/143 110/126/143
f 111/127/144 112/128/144 113/129/144
f 113/129/145 112/128/145 114/130/145
f 112/128/146 115/131/146 114/130/146
f 114/130/147 115/131/147 116/132/147
f 117/133/148 118/134/148 115/131/148
f 115/131/149 118/134/149 116/132/149
f 107/121/150 119/135/150 117/133/150
f 117/133/151 119/135/151 118/134/151
f 107/121/152 109/123/152 119/135/152
f 120/136/153 107/121/153 117/133/153
f 120/136/153 117/133/153 115/131/153
f 111/137/153 120/136/153 112/128/153
f 115/131/153 112/128/153 120/136/153
f 107/121/153 120/136/153 108/122/153
f 120/136/153 111/137/153 108/122/153
f 121/138/154 122/139/154 123/140/154
f 123/140/155 122/139/155 124/141/155
f 122/139/156 125/142/156 124/141/156
f 124/141/157 125/142/157 126/143/157
f 127/144/158 128/145/158 125/142/158
f 125/142/159 128/145/159 126/143/159
f 129/146/160 130/147/160 127/144/160
f 127/144/161 130/147/161 128/145/161
f 131/148/162 130/147/162 129/146/162
f 131/148/163 132/149/163 130/147/163
f 131/148/164 133/150/164 132/149/164
f 132/149/165 133/150/165 134/151/165
f 134/151/166 133/150/166 123/152/166
f 133/150/167 121/153/167 123/152/167
f 67/154/168 123/140/168 68/155/168
f 124/141/169 68/155/169 123/140/169
f 69/156/170 124/141/170 71/157/170
f 68/155/171 124/141/171 69/156/171
f 126/143/172 72/158/172 71/157/172
f 126/143/173 71/157/173 124/141/173
f 126/143/174 128/145/174 72/158/174
f 73/159/175 72/158/175 128/145/175
f 74/160/176 73/159/176 128/145/176
f 128/145/177 75/161/177 74/160/177
f 75/161/178 128/145/178 130/147/178
f 76/162/179 75/161/179 130/147/179
f 77/163/180 76/162/180 130/147/180
f 88/164/181 77/163/181 130/147/181
f 130/147/182 85/165/182 88/164/182
f 130/147/183 132/149/183 85/165/183
f 85/165/184 81/166/184 82/167/184
f 85/165/185 132/149/185 81/166/185
f 134/151/186 81/166/186 132/149/186
f 134/151/187 79/168/187 81/166/187
f 123/152/188 80/169/188 79/168/188
f 79/168/189 134/151/189 123/152/189
f 80/169/190 123/152/190 67/170/190
f 22/171/191 21/172/191 65/173/191
f 67/170/192 21/172/192 80/169/192
f 67/170/193 65/173/193 21/172/193
f 109/124/194 110/126/194 121/138/194
f 121/138/195 110/126/195 122/139/195
f 135/174/196 122/139/196 110/126/196
f 136/175/197 125/142/197 135/174/197
f 136/175/198 111/127/198 113/129/198
f 125/142/199 113/129/199 127/144/199
f 114/130/200 129/146/200 113/129/200
f 113/129/201 129/146/201 127/144/201
f 114/130/202 131/148/202 129/146/202
f 116/132/203 131/148/203 114/130/203
f 118/134/204 133/150/204 116/132/204
f 116/132/205 133/150/205 131/148/205
f 118/134/206 119/135/206 133/150/206
f 119/135/207 109/123/207 133/150/207
f 133/150/208 109/123/208 121/153/208
f 1/1/25 5/5/25 49/50/25
f 105/118/123 31/31/123 49/50/123
f 105/118/209 32/32/209 31/31/209
f 105/118/123 49/50/123 35/35/123
f 137/176/210 17/17/210 41/42/210
f 41/42/56 40/71/56 42/43/56
f 135/174/196 110/126/196 111/127/196
f 135/174/211 125/142/211 122/139/211
f 66/70/56 41/42/56 17/17/56
f 66/70/212 102/115/212 40/71/212
f 48/49/25 49/50/25 31/31/25
f 48/49/28 52/53/28 2/2/28
f 90/98/213 27/27/213 62/63/213
f 62/63/214 100/113/214 3/3/214
f 137/176/215 18/18/215 15/15/215
f 70/77/216 16/16/216 15/15/216
f 51/52/217 31/31/217 53/54/217
f 89/177/69 52/53/69 51/52/69
f 50/51/27 51/52/27 52/53/27
f 50/51/28 48/49/28 31/31/28
f 70/77/216 15/15/216 19/19/216
f 70/77/60 68/75/60 16/16/60
f 137/176/218 15/15/218 17/17/218
f 137/176/219 41/42/219 18/18/219
f 90/98/220 62/63/220 63/64/220
f 90/98/79 28/28/79 27/27/79
f 86/93/221 85/92/221 82/89/221
f 86/93/78 64/65/78 52/53/78
f 78/85/222 75/82/222 77/84/222
f 78/85/69 51/52/69 53/54/69
f 136/175/197 135/174/197 111/127/197
f 136/175/223 113/129/223 125/142/223
f 24/24/224 26/26/224 27/27/224
f 24/24/225 28/28/225 25/25/225
f 83/90/74 23/23/74 64/65/74
f 83/90/78 86/93/78 82/89/78
f 84/91/226 86/93/226 52/53/226
f 84/91/227 88/95/227 85/92/227
f 103/116/228 32/32/228 104/117/228
f 104/117/229 105/118/229 35/35/229
f 101/114/230 5/5/230 1/1/230
f 1/1/231 49/50/231 2/2/231
f 103/116/232 39/72/232 32/32/232
f 103/116/229 104/117/229 34/34/229
f 98/109/233 99/110/233 61/62/233
f 98/109/104 60/61/104 30/30/104
f 91/99/234 64/65/234 23/23/234
f 91/99/235 28/28/235 63/64/235
f 87/94/236 84/91/236 52/53/236
f 87/94/237 77/97/237 88/95/237
f 89/177/69 51/52/69 77/84/69
f 89/96/238 87/94/238 52/53/238
f 101/114/239 1/1/239 3/3/239
f 101/114/240 100/113/240 5/5/240
f 55/56/241 32/32/241 39/72/241
f 55/56/242 40/71/242 56/57/242
